# This file uses centimeters as units for non-parametric coordinates.

v 8.000000 0.000481 -4.000000
v -0.467426 3.999640 -0.435392
v 8.000000 4.000000 -4.000000
v -0.467426 0.000121 -0.435392
v 0.693588 3.999862 -1.459634
v 6.351603 3.999829 -3.865852
v 4.834667 3.999829 -3.543447
v 3.365891 3.999829 -3.027393
v 1.981955 3.999829 -2.330880
v 0.693588 0.000344 -1.459634
v 1.981955 0.000310 -2.330880
v 3.365891 0.000310 -3.027393
v 4.834667 0.000310 -3.543447
v 6.351603 0.000310 -3.865852
v -4.000000 0.000481 8.000000
v -4.000000 4.000000 8.000000
v -3.879305 3.999495 6.405863
v -3.561743 3.999495 4.883327
v -3.053898 3.999495 3.419598
v -2.359482 3.999309 2.026257
v -1.495626 3.999640 0.738315
v -3.879305 -0.000024 6.405863
v -3.561743 -0.000024 4.883327
v -3.053898 -0.000024 3.419598
v -2.359482 -0.000210 2.026257
v -1.495626 0.000121 0.738315
vt 0.885194 0.842592
vt 0.739510 0.554964
vt 0.885194 0.554976
vt 0.739766 0.842590
vt 0.594424 0.554972
vt 0.594682 0.842585
vt 0.885110 0.555041
vt 0.450185 0.842583
vt 0.885538 0.842320
vt 0.739886 0.555022
vt 0.740433 0.842390
vt 0.594684 0.554999
vt 0.595768 0.842389
vt 0.448498 0.554976
vt 0.449536 0.842351
vt 0.885194 0.554213
vt 0.885194 0.841947
vt 0.741084 0.841902
vt 0.741034 0.554189
vt 0.594973 0.841915
vt 0.594931 0.554205
vt 0.885194 0.841932
vt 0.885194 0.554211
vt 0.739655 0.841932
vt 0.739646 0.554211
vt 0.594825 0.841965
vt 0.594837 0.554238
vt 0.450072 0.841947
vt 0.450072 0.554213
vt 0.450072 0.841932
vt 0.450072 0.554211
vt 0.449932 0.554980
vn 0.595059 0.000000 0.803682
vn 0.708336 0.000000 0.705876
vn 0.628913 0.000000 0.777476
vn 0.708336 0.000000 0.705876
vn 0.487324 0.000000 0.873222
vn 0.524265 0.000000 0.851555
vn 0.371523 0.000000 0.928424
vn 0.410953 0.000000 0.911657
vn 0.249548 0.000000 0.968362
vn 0.290820 0.000000 0.956778
vn 0.123599 0.000000 0.992332
vn 0.165937 0.000000 0.986136
vn 0.081112 0.000000 0.996705
vn 0.081112 0.000000 0.996705
vn 0.986858 0.000000 0.161589
vn 0.992941 0.000000 0.118614
vn 0.997146 0.000000 0.075496
vn 0.997146 0.000000 0.075496
vn 0.957898 0.000000 0.287108
vn 0.969313 0.000000 0.245832
vn 0.913260 0.000000 0.407377
vn 0.929873 0.000000 0.367881
vn 0.853560 0.000000 0.520994
vn 0.875105 0.000000 0.483934
vn 0.779725 0.000000 0.626122
vn 0.805872 0.000000 0.592089
s 1
f 5/4/1 2/1/2 10/2/3
f 2/1/2 4/3/4 10/2/3
f 9/6/5 5/4/1 11/5/6
f 5/4/1 10/2/3 11/5/6
f 8/8/7 9/6/5 12/32/8
f 9/6/5 11/5/6 12/32/8
f 7/11/9 8/9/7 13/10/10
f 8/9/7 12/7/8 13/10/10
f 6/13/11 7/11/9 14/12/12
f 7/11/9 13/10/10 14/12/12
f 3/15/13 6/13/11 1/14/14
f 6/13/11 14/12/12 1/14/14
f 22/19/15 17/18/16 15/16/17
f 17/18/16 16/17/18 15/16/17
f 23/21/19 18/20/20 22/19/15
f 18/20/20 17/18/16 22/19/15
f 24/31/21 19/30/22 23/21/19
f 19/30/22 18/20/20 23/21/19
f 25/25/23 20/24/24 24/23/21
f 20/24/24 19/22/22 24/23/21
f 26/27/25 21/26/26 25/25/23
f 21/26/26 20/24/24 25/25/23
f 4/29/4 2/28/2 26/27/25
f 2/28/2 21/26/26 26/27/25
